<svg width="48" height="27" viewBox="0 0 48 27" fill="none" xmlns="http://www.w3.org/2000/svg">
<rect width="8.74138" height="24.9754" rx="4.37069" transform="matrix(-0.862207 0.506556 0.506556 0.862207 34.9165 0.0953979)" fill="#666CFF"/>
<rect width="8.74138" height="24.9754" rx="4.37069" transform="matrix(-0.862207 0.506556 0.506556 0.862207 35.0059 0.0947266)" fill="url(#paint0_linear_20115_154)" fill-opacity="0.4"/>
<rect x="31.0151" y="0.125" width="8.74138" height="24.9754" rx="4.37069" transform="rotate(29.5653 31.0151 0.125)" fill="#666CFF"/>
<rect width="8.74138" height="24.9754" rx="4.37069" transform="matrix(-0.862207 0.506556 0.506556 0.862207 17.2788 0.229248)" fill="#666CFF"/>
<rect width="8.74138" height="24.9754" rx="4.37069" transform="matrix(-0.862207 0.506556 0.506556 0.862207 17.2788 0.229248)" fill="url(#paint1_linear_20115_154)" fill-opacity="0.4"/>
<rect x="13.3774" y="0.25885" width="8.74138" height="24.9754" rx="4.37069" transform="rotate(29.5653 13.3774 0.25885)" fill="#666CFF"/>
<defs>
<linearGradient id="paint0_linear_20115_154" x1="4.37069" y1="0" x2="4.37069" y2="24.9754" gradientUnits="userSpaceOnUse">
<stop/>
<stop offset="1" stop-opacity="0"/>
</linearGradient>
<linearGradient id="paint1_linear_20115_154" x1="4.37069" y1="0" x2="4.37069" y2="24.9754" gradientUnits="userSpaceOnUse">
<stop/>
<stop offset="1" stop-opacity="0"/>
</linearGradient>
</defs>
</svg>
